<svg xmlns="http://www.w3.org/2000/svg" width="152" height="124" viewBox="0 0 152 124" fill="none">
  <path d="M5.59961 56.9004V58.1805" stroke="#D2D8DF" stroke-width="1.24645" stroke-linecap="round"/>
  <path d="M2.72266 57.5938L3.76873 58.6706" stroke="#D2D8DF" stroke-width="1.24645" stroke-linecap="round"/>
  <path d="M1.5 60.46H2.97913" stroke="#D2D8DF" stroke-width="1.24645" stroke-linecap="round"/>
  <path d="M2.60352 63.3776L3.64959 62.3008" stroke="#D2D8DF" stroke-width="1.24645" stroke-linecap="round"/>
  <path d="M5.59961 63.7274V62.4473" stroke="#D2D8DF" stroke-width="1.24645" stroke-linecap="round"/>
  <path d="M7.73235 62.8739L6.87891 62.0205" stroke="#D2D8DF" stroke-width="1.24645" stroke-linecap="round"/>
  <path d="M9.43836 60.7412H8.1582" stroke="#D2D8DF" stroke-width="1.24645" stroke-linecap="round"/>
  <path d="M8.58586 57.7539L7.73242 58.6073" stroke="#D2D8DF" stroke-width="1.24645" stroke-linecap="round"/>
  <path d="M74.3008 1V1.85344" stroke="#D2D8DF" stroke-width="1.24645" stroke-linecap="round"/>
  <path d="M71.7402 3.56055H72.5937" stroke="#D2D8DF" stroke-width="1.24645" stroke-linecap="round"/>
  <path d="M74.3008 6.12102V5.26758" stroke="#D2D8DF" stroke-width="1.24645" stroke-linecap="round"/>
  <path d="M76.4335 3.56055H75.5801" stroke="#D2D8DF" stroke-width="1.24645" stroke-linecap="round"/>
  <path d="M24.8008 36.8447V38.1249" stroke="#D2D8DF" stroke-width="1.24645" stroke-linecap="round"/>
  <path d="M20.9609 40.6846H22.2411" stroke="#D2D8DF" stroke-width="1.24645" stroke-linecap="round"/>
  <path d="M24.8008 44.0985V42.8184" stroke="#D2D8DF" stroke-width="1.24645" stroke-linecap="round"/>
  <path d="M28.2157 40.6846H26.9355" stroke="#D2D8DF" stroke-width="1.24645" stroke-linecap="round"/>
  <path d="M116.655 83.374C117.675 83.374 118.502 84.2013 118.502 85.2213C118.502 86.2418 117.675 87.0687 116.655 87.0687C115.636 87.0687 114.809 86.2418 114.809 85.2213" stroke="#D2D8DF" stroke-width="1.24645" stroke-linecap="round"/>
  <path fill-rule="evenodd" clip-rule="evenodd" d="M125.107 66.6144C126.204 66.2723 127.885 64.9312 128.274 63.4883C128.627 64.7638 130.106 66.2723 131.441 66.3865C129.938 66.9184 128.502 68.4987 128.274 69.7401C128.119 68.4747 126.132 66.7988 125.107 66.6144Z" fill="#EBECEE"/>
  <path fill-rule="evenodd" clip-rule="evenodd" d="M12.543 82.8051C13.0914 82.634 13.9315 81.9636 14.1261 81.2422C14.3025 81.8796 15.0419 82.634 15.7092 82.6913C14.9582 82.9569 14.2402 83.7472 14.1261 84.3679C14.0486 83.7352 13.0552 82.8971 12.543 82.8051Z" fill="#EBECEE"/>
  <path fill-rule="evenodd" clip-rule="evenodd" d="M22.7215 23.4441C22.7215 24.2355 22.0803 24.8766 21.2895 24.8766C20.4983 24.8766 19.8574 24.2355 19.8574 23.4441C19.8574 22.6531 20.4983 22.0117 21.2895 22.0117C22.0803 22.0117 22.7215 22.6531 22.7215 23.4441Z" fill="#D1D8DF"/>
  <path fill-rule="evenodd" clip-rule="evenodd" d="M118.348 27.2906C118.348 28.6129 117.276 29.6847 115.954 29.6847C114.632 29.6847 113.561 28.6129 113.561 27.2906C113.561 25.9684 114.632 24.8965 115.954 24.8965C117.276 24.8965 118.348 25.9684 118.348 27.2906Z" fill="#EBECEE"/>
  <path fill-rule="evenodd" clip-rule="evenodd" d="M151.5 20.8044C151.5 21.8534 150.65 22.7035 149.602 22.7035C148.553 22.7035 147.703 21.8534 147.703 20.8044C147.703 19.7554 148.553 18.9053 149.602 18.9053C150.65 18.9053 151.5 19.7554 151.5 20.8044Z" fill="#EBECEE"/>
  <path fill-rule="evenodd" clip-rule="evenodd" d="M49.4853 109.501C49.4853 110.162 48.9495 110.698 48.2884 110.698C47.6276 110.698 47.0918 110.162 47.0918 109.501C47.0918 108.84 47.6276 108.304 48.2884 108.304C48.9495 108.304 49.4853 108.84 49.4853 109.501Z" stroke="#D2D8DF" stroke-width="1.24645" stroke-linecap="round"/>
  <path fill-rule="evenodd" clip-rule="evenodd" d="M48.7723 14.242C48.7723 15.0334 48.1311 15.6744 47.3402 15.6744C46.5494 15.6744 45.9082 15.0334 45.9082 14.242C45.9082 13.451 46.5494 12.8096 47.3402 12.8096C48.1311 12.8096 48.7723 13.451 48.7723 14.242Z" stroke="#D2D8DF" stroke-width="1.24645" stroke-linecap="round"/>
  <path fill-rule="evenodd" clip-rule="evenodd" d="M85.3022 122.759C84.3871 123.107 83.3629 122.647 83.0148 121.732C82.6667 120.817 83.126 119.792 84.0415 119.445C84.9562 119.096 85.9803 119.556 86.3285 120.471C86.677 121.386 86.2172 122.411 85.3022 122.759Z" stroke="#D2D8DF" stroke-width="1.24645" stroke-linecap="round"/>
  <path fill-rule="evenodd" clip-rule="evenodd" d="M84.7552 88.9039H49.7623C47.2993 88.9039 45.2832 86.8819 45.2832 84.4106V34.5089C45.2832 32.0376 47.2993 30.0166 49.7623 30.0166H84.7552C87.2192 30.0166 89.2353 32.0376 89.2353 34.5089V84.4106C89.2353 86.8819 87.2192 88.9039 84.7552 88.9039Z" fill="#E9E9E9"/>
  <path fill-rule="evenodd" clip-rule="evenodd" d="M81.767 91.0377H46.774C44.311 91.0377 42.2949 89.0156 42.2949 86.5444V36.6427C42.2949 34.1714 44.311 32.1504 46.774 32.1504H81.767C84.2309 32.1504 86.247 34.1714 86.247 36.6427V86.5444C86.247 89.0156 84.2309 91.0377 81.767 91.0377Z" fill="#F7F7F7"/>
  <path fill-rule="evenodd" clip-rule="evenodd" d="M78.8622 92.7216H43.7969C41.3288 92.7216 39.3086 90.7079 39.3086 88.2469V38.5518C39.3086 36.0908 41.3288 34.0781 43.7969 34.0781H78.8622C81.3313 34.0781 83.3515 36.0908 83.3515 38.5518V88.2469C83.3515 90.7079 81.3313 92.7216 78.8622 92.7216Z" fill="#D8DBEA"/>
  <path fill-rule="evenodd" clip-rule="evenodd" d="M78.8622 92.7216H43.7969C41.3288 92.7216 39.3086 90.7079 39.3086 88.2469V38.5518C39.3086 36.0908 41.3288 34.0781 43.7969 34.0781H78.8622C81.3313 34.0781 83.3515 36.0908 83.3515 38.5518V88.2469C83.3515 90.7079 81.3313 92.7216 78.8622 92.7216Z" fill="#FBFBFB"/>
  <path fill-rule="evenodd" clip-rule="evenodd" d="M73.8076 49.2185H47.9076C47.1679 49.2185 46.5625 48.6425 46.5625 47.9388C46.5625 47.2342 47.1679 46.6582 47.9076 46.6582H73.8076C74.5473 46.6582 75.1527 47.2342 75.1527 47.9388C75.1527 48.6425 74.5473 49.2185 73.8076 49.2185Z" fill="#E3E3E3" fill-opacity="0.7"/>
  <path fill-rule="evenodd" clip-rule="evenodd" d="M73.8076 56.9002H47.9076C47.1679 56.9002 46.5625 56.3242 46.5625 55.6205C46.5625 54.9158 47.1679 54.3398 47.9076 54.3398H73.8076C74.5473 54.3398 75.1527 54.9158 75.1527 55.6205C75.1527 56.3242 74.5473 56.9002 73.8076 56.9002Z" fill="#E3E3E3" fill-opacity="0.7"/>
  <path fill-rule="evenodd" clip-rule="evenodd" d="M73.8076 64.5808H47.9076C47.1679 64.5808 46.5625 64.0048 46.5625 63.3011C46.5625 62.5975 47.1679 62.0205 47.9076 62.0205H73.8076C74.5473 62.0205 75.1527 62.5975 75.1527 63.3011C75.1527 64.0048 74.5473 64.5808 73.8076 64.5808Z" fill="#E3E3E3" fill-opacity="0.7"/>
  <path fill-rule="evenodd" clip-rule="evenodd" d="M73.8076 72.2615H47.9076C47.1679 72.2615 46.5625 71.6855 46.5625 70.9818C46.5625 70.2772 47.1679 69.7012 47.9076 69.7012H73.8076C74.5473 69.7012 75.1527 70.2772 75.1527 70.9818C75.1527 71.6855 74.5473 72.2615 73.8076 72.2615Z" fill="#E3E3E3" fill-opacity="0.7"/>
  <path fill-rule="evenodd" clip-rule="evenodd" d="M61.427 79.9431H47.9134C47.1705 79.9431 46.5625 79.3671 46.5625 78.6635C46.5625 77.9588 47.1705 77.3828 47.9134 77.3828H61.427C62.1698 77.3828 62.7778 77.9588 62.7778 78.6635C62.7778 79.3671 62.1698 79.9431 61.427 79.9431Z" fill="#E3E3E3" fill-opacity="0.7"/>
  <path fill-rule="evenodd" clip-rule="evenodd" d="M88.7037 70.0162C83.5247 75.1943 75.507 75.7785 69.6863 71.7806C68.9424 71.2605 68.2343 70.6764 67.5741 70.0162C67.2342 69.6775 66.9138 69.3278 66.6119 68.9598C66.0081 68.2247 65.4792 67.4408 65.0459 66.6308C64.2825 65.2627 63.7634 63.811 63.48 62.3105C62.5656 57.6047 63.9328 52.5395 67.5741 48.9C71.224 45.2496 76.29 43.8913 80.9966 44.7968C82.4963 45.0889 83.9493 45.6079 85.3176 46.3625C86.1289 46.8055 86.9021 47.3343 87.6384 47.938C88.0054 48.2387 88.3551 48.5601 88.6939 48.9C89.3553 49.5601 89.9482 50.267 90.4586 51.0118C94.4582 56.8305 93.8729 64.8479 88.7037 70.0162Z" fill="white" fill-opacity="0.1"/>
  <path fill-rule="evenodd" clip-rule="evenodd" d="M87.2542 68.9961C81.8662 74.3851 73.1345 74.3841 67.7454 68.9961C62.3635 63.6141 62.3635 54.8814 67.7525 49.4934C73.1345 44.1114 81.8662 44.1114 87.2482 49.4934C92.6362 54.8814 92.6362 63.6141 87.2542 68.9961ZM90.0194 46.7251C83.1034 39.8091 71.8962 39.8091 64.9803 46.7251C58.0653 53.6401 58.0593 64.8542 64.9742 71.7702C71.2686 78.0626 81.1343 78.6301 88.0733 73.4636C88.7511 72.9583 89.4038 72.3918 90.0264 71.7702C90.648 71.1476 91.2145 70.4949 91.7188 69.8171C96.8852 62.8771 96.3127 53.0184 90.0194 46.7251Z" fill="#E4E4E4"/>
  <path fill-rule="evenodd" clip-rule="evenodd" d="M117.238 97.8401L116.947 98.1304C115.027 100.052 111.881 100.052 109.959 98.1304L92.2227 80.3939L99.5013 73.1152L117.238 90.8517C119.16 92.7736 119.16 95.9182 117.238 97.8401Z" fill="#8C8C8C"/>
  <path fill-rule="evenodd" clip-rule="evenodd" d="M92.1008 69.2744L97.342 74.5156L93.621 78.2355L88.3809 72.9943C89.0725 72.4787 89.7375 71.9006 90.3738 71.2663C91.0081 70.632 91.5862 69.966 92.1008 69.2744Z" fill="#E3E3E3"/>
  <path fill-rule="evenodd" clip-rule="evenodd" d="M116.972 90.6341L109.74 97.8654L108.438 96.5624L115.669 89.3311L116.972 90.6341Z" fill="#E9E9E9"/>
  <path fill-rule="evenodd" clip-rule="evenodd" d="M99.9035 73.3656L92.4731 80.7961L91.3691 79.6923L98.7996 72.2617L99.9035 73.3656Z" fill="#E9E9E9"/>
  <path fill-rule="evenodd" clip-rule="evenodd" d="M83.6877 47.64L65.4653 65.8615C64.779 64.6316 64.3124 63.3265 64.0586 61.9775L79.8035 46.2324C81.1516 46.496 82.4577 46.9616 83.6877 47.64Z" fill="white" fill-opacity="0.5"/>
  <path fill-rule="evenodd" clip-rule="evenodd" d="M89.6611 51.9704L69.9606 70.5547C69.2551 70.0903 68.5836 69.5676 67.9574 68.9768C67.6351 68.6727 67.3302 68.3608 67.0449 68.0314L86.9853 49.2188C87.3345 49.4889 87.6661 49.7765 87.9874 50.0806C88.6136 50.6713 89.177 51.3039 89.6611 51.9704Z" fill="white" fill-opacity="0.5"/>
</svg>